<svg width="56" height="56" viewBox="0 0 56 56" fill="none" xmlns="http://www.w3.org/2000/svg">
<path fill-rule="evenodd" clip-rule="evenodd" d="M53.9399 8.05643C53.9246 8.28607 54.0004 8.5125 54.1509 8.6866C54.3014 8.8607 54.5145 8.96844 54.744 8.98643C54.9734 9.00443 55.2007 8.93123 55.3765 8.78272C55.5523 8.63421 55.6625 8.42237 55.6831 8.19315L55.9967 4.35004H55.9964C56.0065 4.22154 55.988 4.0924 55.9423 3.97187C55.8966 3.85134 55.8248 3.74242 55.7321 3.65291C55.6393 3.5634 55.5279 3.49553 55.4059 3.45415C55.2838 3.41277 55.1541 3.39891 55.026 3.41357L51.1967 3.86529C51.0827 3.8783 50.9723 3.91363 50.872 3.96929C50.7716 4.02494 50.6832 4.09982 50.6118 4.18965C50.5404 4.27947 50.4874 4.38249 50.4558 4.49281C50.4242 4.60313 50.4146 4.71859 50.4277 4.8326C50.4407 4.94662 50.476 5.05695 50.5317 5.15731C50.5873 5.25766 50.6622 5.34607 50.752 5.41749C50.8419 5.4889 50.9449 5.54192 51.0552 5.57351C51.1655 5.6051 51.281 5.61465 51.395 5.60162L52.8052 5.43526L42.8148 15.8233L32.3584 10.6656C32.2005 10.574 32.0179 10.5342 31.8362 10.5515C31.6545 10.5689 31.4828 10.6427 31.3451 10.7625L24.5726 16.6612C24.7048 15.9307 24.7712 15.1899 24.771 14.4475C24.771 7.61827 19.215 2.06213 12.3856 2.06213C5.55625 2.06213 0 7.61817 0 14.4474C0 21.2767 5.55603 26.8327 12.3853 26.8327C17.2512 26.8327 21.4699 24.0117 23.494 19.9198L32.0558 12.4627L42.6148 17.6709C42.7847 17.7547 42.9773 17.781 43.1635 17.7458C43.3497 17.7105 43.5193 17.6157 43.6469 17.4756L54.0543 6.65391L53.9399 8.05643ZM12.3854 25.0828C6.52105 25.0828 1.75 20.3118 1.75 14.4474C1.75 8.58307 6.52105 3.81202 12.3853 3.81202C18.2497 3.81202 23.0207 8.58307 23.0207 14.4474C23.0207 20.3118 18.2498 25.0828 12.3854 25.0828ZM27.5189 26.4469H22.5671C21.4816 26.4469 20.5984 27.3301 20.5984 28.4156V51.969C20.5984 53.0545 21.4816 53.9377 22.5671 53.9377H27.5189C28.6044 53.9377 29.4876 53.0545 29.4876 51.969V28.4157C29.4876 27.3301 28.6044 26.4469 27.5189 26.4469ZM27.7376 51.9691C27.7376 52.0876 27.6374 52.1878 27.5189 52.1878H22.5671C22.4486 52.1878 22.3484 52.0876 22.3484 51.9691V28.4157C22.3484 28.2971 22.4486 28.197 22.5671 28.197H27.5189C27.6374 28.197 27.7376 28.2971 27.7376 28.4157V51.9691ZM40.7752 31.3158H35.8235C34.7379 31.3158 33.8547 32.199 33.8547 33.2845V51.9691C33.8547 53.0546 34.7379 53.9378 35.8235 53.9378H40.7752C41.8608 53.9378 42.744 53.0546 42.744 51.9691V33.2845C42.744 32.199 41.8608 31.3158 40.7752 31.3158ZM40.994 51.9691C40.994 52.0876 40.8938 52.1878 40.7752 52.1878H35.8235C35.7049 52.1878 35.6047 52.0876 35.6047 51.9691V33.2845C35.6047 33.166 35.7049 33.0658 35.8235 33.0658H40.7752C40.8938 33.0658 40.994 33.166 40.994 33.2845V51.9691ZM54.0312 17.0821H49.0795C47.994 17.0821 47.1108 17.9653 47.1108 19.0508V51.969C47.1108 53.0545 47.994 53.9377 49.0795 53.9377H54.0312C55.1168 53.9377 56 53.0545 56 51.969V19.0508C56 17.9653 55.1168 17.0821 54.0312 17.0821ZM54.25 51.969C54.25 52.0875 54.1498 52.1877 54.0312 52.1877H49.0795C48.961 52.1877 48.8608 52.0875 48.8608 51.969V19.0508C48.8608 18.9322 48.961 18.8321 49.0795 18.8321H54.0312C54.1498 18.8321 54.25 18.9322 54.25 19.0508V51.969ZM14.2626 38.4917H9.31098C8.22544 38.4917 7.34223 39.3749 7.34223 40.4604V51.969C7.34223 53.0545 8.22544 53.9377 9.31098 53.9377H14.2626C15.3482 53.9377 16.2314 53.0545 16.2314 51.969V40.4604C16.2314 39.3749 15.3482 38.4917 14.2626 38.4917ZM14.4814 51.969C14.4814 52.0875 14.3812 52.1877 14.2626 52.1877H9.31098C9.19242 52.1877 9.09223 52.0875 9.09223 51.969V40.4604C9.09223 40.3419 9.19242 40.2417 9.31098 40.2417H14.2626C14.3812 40.2417 14.4814 40.3419 14.4814 40.4604V51.969ZM16.8989 17.0426C17.0311 18.1163 16.6547 19.2315 15.667 19.9809C14.9868 20.4971 14.1127 20.8012 13.2604 20.9198V21.7311C13.2604 21.9632 13.1682 22.1858 13.0041 22.3499C12.84 22.514 12.6175 22.6061 12.3854 22.6061C12.1533 22.6061 11.9308 22.514 11.7667 22.3499C11.6026 22.1858 11.5104 21.9632 11.5104 21.7311V20.9036C10.8032 20.789 10.1267 20.5387 9.54756 20.153C8.73294 19.6104 8.10884 18.8102 7.84514 17.7521C7.7909 17.5276 7.82779 17.2908 7.94774 17.0935C8.0677 16.8962 8.26094 16.7545 8.48516 16.6994C8.70939 16.6442 8.94633 16.6802 9.14411 16.7993C9.3419 16.9185 9.48441 17.1111 9.54045 17.3351C9.68931 17.9323 10.0454 18.3866 10.5115 18.697C11.6576 19.4603 13.5064 19.4339 14.6142 18.5933C15.5913 17.8519 15.233 16.4848 14.2855 15.9127C13.7108 15.5658 12.9591 15.3827 12.2558 15.2673C11.4025 15.1272 10.4781 14.8734 9.72792 14.3837C7.7933 13.1207 7.73544 10.3419 9.50195 8.90562C10.0448 8.46429 10.7191 8.16132 11.4377 8.01662L11.5105 8.00251V7.1636C11.5105 6.93154 11.6027 6.70898 11.7668 6.54488C11.9309 6.38079 12.1535 6.2886 12.3855 6.2886C12.6176 6.2886 12.8401 6.38079 13.0042 6.54488C13.1683 6.70898 13.2605 6.93154 13.2605 7.1636V7.98916C13.3783 8.00951 13.4955 8.03445 13.6115 8.06376C14.8552 8.37909 15.9866 9.19677 16.5808 10.6122C16.6657 10.8252 16.6636 11.0631 16.5749 11.2745C16.4862 11.486 16.318 11.6542 16.1066 11.7429C15.8951 11.8316 15.6573 11.8338 15.4442 11.7489C15.2312 11.664 15.06 11.4989 14.9675 11.289C14.5422 10.2751 13.4974 9.67343 12.4058 9.67288C11.2421 9.67223 9.884 10.3714 9.94842 11.6989C10.0108 12.983 11.5056 13.3753 12.5361 13.5445C13.4212 13.6898 14.386 13.9315 15.1878 14.4156C16.1701 15.0087 16.7712 16.0064 16.8989 17.0426Z" fill="#8544FF"/>
</svg>
